<?xml version="1.0" encoding="UTF-8"?>
<!-- Created with Inkscape (http://www.inkscape.org/) -->
<svg width="40.877mm" height="30.758mm" version="1.1" viewBox="0 0 40.876526 30.758036" xmlns="http://www.w3.org/2000/svg" xmlns:cc="http://creativecommons.org/ns#" xmlns:dc="http://purl.org/dc/elements/1.1/" xmlns:rdf="http://www.w3.org/1999/02/22-rdf-syntax-ns#">
 <metadata>
  <rdf:RDF>
   <cc:Work rdf:about="">
    <dc:format>image/svg+xml</dc:format>
    <dc:type rdf:resource="http://purl.org/dc/dcmitype/StillImage"/>
    <dc:title/>
    <dc:creator>
     <cc:Agent>
      <dc:title>Duk Lee</dc:title>
     </cc:Agent>
    </dc:creator>
   </cc:Work>
  </rdf:RDF>
 </metadata>
 <g transform="translate(-.028057 .034703)">
  <path d="m4.9742 3.3125 24.289 0.26458-29.21 14.975 23.548-13.494z" opacity="0" stroke-width=".1"/>
  <path d="m0.052917 18.553c9.6926-3.0598 18.398-3.2916 29.21-14.975-8.9133-5.989-16.618-3.2518-24.289-0.26458 7.2044-0.81164 14.821-2.1999 18.627 1.7462-7.5074 8.3259-15.087 10.107-23.548 13.494z" fill="#0079c2" fill-rule="evenodd"/>
  <g stroke-width=".1">
   <path d="m9.9537 14.91c5.0449-2.1998 9.3327-5.0712 12.645-8.4678 1.2821-1.3148 1.2965-1.3478 0.81791-1.8766-0.76727-0.84782-3.0131-1.8083-5.028-2.1503-1.7281-0.29331-5.9727-0.22441-9.5303 0.15472l-1.3229 0.14098 0.89878-0.41574c0.49433-0.22866 2.0421-0.73391 3.4396-1.1228 2.199-0.61193 3.0391-0.70694 6.245-0.70634 3.3786 5.29e-4 3.8902 0.06596 5.8208 0.74313 1.1642 0.40834 2.7642 1.1125 3.5557 1.5647l1.439 0.82227-2.6714 2.5546c-4.4925 4.296-9.0406 6.9938-15.201 9.0168-4.2471 1.3946-4.6705 1.2961-1.1073-0.25766z" opacity="0"/>
   <path d="m9.9537 14.91c5.0449-2.1998 9.3327-5.0712 12.645-8.4678 1.2821-1.3148 1.2965-1.3478 0.81791-1.8766-0.76727-0.84782-3.0131-1.8083-5.028-2.1503-1.7281-0.29331-5.9727-0.22441-9.5303 0.15472l-1.3229 0.14098 0.89878-0.41574c0.49433-0.22866 2.0421-0.73391 3.4396-1.1228 2.199-0.61193 3.0391-0.70694 6.245-0.70634 3.3786 5.29e-4 3.8902 0.06596 5.8208 0.74313 1.1642 0.40834 2.7642 1.1125 3.5557 1.5647l1.439 0.82227-2.6714 2.5546c-4.4925 4.296-9.0406 6.9938-15.201 9.0168-4.2471 1.3946-4.6705 1.2961-1.1073-0.25766z" opacity="0"/>
   <path d="m9.9537 14.91c5.0449-2.1998 9.3327-5.0712 12.645-8.4678 1.2821-1.3148 1.2965-1.3478 0.81791-1.8766-0.76727-0.84782-3.0131-1.8083-5.028-2.1503-1.7281-0.29331-5.9727-0.22441-9.5303 0.15472l-1.3229 0.14098 0.89878-0.41574c0.49433-0.22866 2.0421-0.73391 3.4396-1.1228 2.199-0.61193 3.0391-0.70694 6.245-0.70634 3.3786 5.29e-4 3.8902 0.06596 5.8208 0.74313 1.1642 0.40834 2.7642 1.1125 3.5557 1.5647l1.439 0.82227-2.6714 2.5546c-4.4925 4.296-9.0406 6.9938-15.201 9.0168-4.2471 1.3946-4.6705 1.2961-1.1073-0.25766z" opacity="0"/>
   <path d="m9.9537 14.91c5.0449-2.1998 9.3327-5.0712 12.645-8.4678 1.2821-1.3148 1.2965-1.3478 0.81791-1.8766-0.76727-0.84782-3.0131-1.8083-5.028-2.1503-1.7281-0.29331-5.9727-0.22441-9.5303 0.15472l-1.3229 0.14098 0.89878-0.41574c0.49433-0.22866 2.0421-0.73391 3.4396-1.1228 2.199-0.61193 3.0391-0.70694 6.245-0.70634 3.3786 5.29e-4 3.8902 0.06596 5.8208 0.74313 1.1642 0.40834 2.7642 1.1125 3.5557 1.5647l1.439 0.82227-2.6714 2.5546c-4.4925 4.296-9.0406 6.9938-15.201 9.0168-4.2471 1.3946-4.6705 1.2961-1.1073-0.25766z" opacity="0"/>
   <path d="m9.9537 14.91c5.0449-2.1998 9.3327-5.0712 12.645-8.4678 1.2821-1.3148 1.2965-1.3478 0.81791-1.8766-0.76727-0.84782-3.0131-1.8083-5.028-2.1503-1.7281-0.29331-5.9727-0.22441-9.5303 0.15472l-1.3229 0.14098 0.89878-0.41574c0.49433-0.22866 2.0421-0.73391 3.4396-1.1228 2.199-0.61193 3.0391-0.70694 6.245-0.70634 3.3786 5.29e-4 3.8902 0.06596 5.8208 0.74313 1.1642 0.40834 2.7642 1.1125 3.5557 1.5647l1.439 0.82227-2.6714 2.5546c-4.4925 4.296-9.0406 6.9938-15.201 9.0168-4.2471 1.3946-4.6705 1.2961-1.1073-0.25766z" opacity="0"/>
  </g>
  <g stroke-width=".038314">
   <path d="m4.8197 16.935c0.024686-0.02469 0.76817-0.3222 1.6522-0.66113 5.8049-2.2256 9.4159-4.1768 12.934-6.9888 1.1307-0.90371 4.359-4.0339 4.359-4.2265 0-0.2075-1.1874-1.1173-2.0324-1.5572-1.6842-0.8769-3.564-1.226-6.5994-1.2254-2.1659 2.65e-4 -3.2746 0.07402-6.2306 0.41388-0.95412 0.1097-1.8665 0.19732-2.0274 0.19471-0.25438-0.0041-0.22636-0.03096 0.21418-0.20513 1.1187-0.44228 4.182-1.4219 5.3493-1.7107 5.947-1.4713 10.709-0.84608 15.609 2.0491 0.48785 0.28826 0.887 0.55302 0.887 0.58838 0 0.1366-1.6536 1.8198-2.8616 2.9128-5.6101 5.076-10.237 7.4987-18.803 9.8444-2.1043 0.57627-2.5626 0.68318-2.4512 0.57172z" opacity="0"/>
   <path d="m4.8197 16.935c0.024686-0.02469 0.76817-0.3222 1.6522-0.66113 5.8049-2.2256 9.4159-4.1768 12.934-6.9888 1.1307-0.90371 4.359-4.0339 4.359-4.2265 0-0.2075-1.1874-1.1173-2.0324-1.5572-1.6842-0.8769-3.564-1.226-6.5994-1.2254-2.1659 2.65e-4 -3.2746 0.07402-6.2306 0.41388-0.95412 0.1097-1.8665 0.19732-2.0274 0.19471-0.25438-0.0041-0.22636-0.03096 0.21418-0.20513 1.1187-0.44228 4.182-1.4219 5.3493-1.7107 5.947-1.4713 10.709-0.84608 15.609 2.0491 0.48785 0.28826 0.887 0.55302 0.887 0.58838 0 0.1366-1.6536 1.8198-2.8616 2.9128-5.6101 5.076-10.237 7.4987-18.803 9.8444-2.1043 0.57627-2.5626 0.68318-2.4512 0.57172z" opacity="0"/>
   <path d="m17.429 29.009c4.8732-1.7298 8.6298-3.583 11.378-5.613 1.1427-0.84397 2.5897-2.1154 3.1283-2.7486l0.37256-0.43802-0.44001-0.44834c-0.48784-0.49707-1.6271-1.1296-2.6154-1.4521-2.2562-0.73628-5.8933-0.85237-9.783-0.31227-0.82903 0.11512-1.5273 0.18931-1.5517 0.16488-0.09674-0.09674 4.0604-1.3908 5.2448-1.6326 0.69348-0.14159 1.8916-0.31217 2.6625-0.37906 3.386-0.29378 6.9615 0.51365 10.282 2.3219l0.73515 0.40038-0.81726 0.97912c-3.3935 4.0656-9.175 7.134-17.197 9.1268-3.2366 0.80404-3.5998 0.81208-1.3992 0.031z" opacity="0"/>
   <path d="m0.11413 18.537c-0.077413-0.07741 0.2488-0.2096 4.5931-1.8612 4.0658-1.5457 5.4462-2.1291 7.7043-3.2561 3.9838-1.9882 7.3838-4.4585 10.178-7.3952l0.90081-0.94659-0.45723-0.40999c-0.67987-0.60964-1.4922-1.0593-2.5929-1.4352-1.6709-0.57071-2.5958-0.69049-5.3428-0.69188-2.4942-0.0013-3.1295 0.04575-7.4961 0.55469-1.3909 0.16211-2.5528 0.27082-2.582 0.24156-0.086998-0.087 0.17852-0.21242 1.5121-0.71427 4.8073-1.8091 7.8217-2.537 10.948-2.6438 3.3133-0.11315 6.0448 0.46519 8.9714 1.8995 1.3028 0.63848 2.8891 1.5777 2.8891 1.7105 0 0.1251-3.4948 3.5188-4.4648 4.3356-5.1142 4.3067-9.717 6.5656-17.837 8.754-2.6366 0.71057-6.4679 1.7818-6.7235 1.8799-0.071333 0.02737-0.16184 0.01762-0.20113-0.02167zm5.7293-1.7122c1.3544-0.36422 3.2152-0.8875 4.1351-1.1628 6.712-2.0089 11.363-4.6684 16.524-9.448 1.8363-1.7008 2.6291-2.5924 2.425-2.7273-2.6961-1.7811-5.5911-2.8794-8.539-3.2394-1.2589-0.15375-4.3332-0.07018-5.6451 0.15346-1.525 0.25996-3.3534 0.73656-5.2713 1.3741-1.9126 0.63574-3.4789 1.2176-3.4244 1.2721 0.018624 0.01863 1.1959-0.09747 2.6161-0.25798 8.0388-0.90853 11.568-0.51976 14.295 1.5749 0.93577 0.71861 1.0084 0.52411-0.89241 2.3904-4.486 4.4046-8.2555 6.6382-16.588 9.829-1.2881 0.49326-2.2869 0.8984-2.2195 0.90032 0.067382 0.0019 1.2306-0.29452 2.585-0.65874z" opacity="0"/>
  </g>
 </g>
 <g transform="translate(-.028057 .034703)" stroke-width=".038314">
  <path d="m33.213 16.778-0.74016-0.26796 0.94291-0.71917c1.0394-0.7928 2.3999-2.1457 2.9043-2.8882l0.32506-0.4785-0.48432-0.35468c-1.038-0.76015-2.7582-1.4307-4.3364-1.6904-1.5588-0.25645-4.563-0.13129-6.5276 0.27194l-0.26437 0.05426 0.25861-0.14999c0.35651-0.20677 2.4948-0.93666 3.4839-1.1892 3.7476-0.95686 7.3211-0.48865 10.779 1.4123 0.57148 0.31416 1.0391 0.59992 1.0391 0.63502 0 0.0351-0.71847 0.76645-1.5966 1.6252-1.485 1.4522-3.1576 2.815-4.4857 3.6547l-0.55754 0.35252z" opacity="0"/>
  <path d="m33.213 16.778-0.74016-0.26796 0.94291-0.71917c1.0394-0.7928 2.3999-2.1457 2.9043-2.8882l0.32506-0.4785-0.48432-0.35468c-1.038-0.76015-2.7582-1.4307-4.3364-1.6904-1.5588-0.25645-4.563-0.13129-6.5276 0.27194l-0.26437 0.05426 0.25861-0.14999c0.35651-0.20677 2.4948-0.93666 3.4839-1.1892 3.7476-0.95686 7.3211-0.48865 10.779 1.4123 0.57148 0.31416 1.0391 0.59992 1.0391 0.63502 0 0.0351-0.71847 0.76645-1.5966 1.6252-1.485 1.4522-3.1576 2.815-4.4857 3.6547l-0.55754 0.35252z" opacity="0"/>
  <path d="m33.213 16.778-0.74016-0.26796 0.94291-0.71917c1.0394-0.7928 2.3999-2.1457 2.9043-2.8882l0.32506-0.4785-0.48432-0.35468c-1.038-0.76015-2.7582-1.4307-4.3364-1.6904-1.5588-0.25645-4.563-0.13129-6.5276 0.27194l-0.26437 0.05426 0.25861-0.14999c0.35651-0.20677 2.4948-0.93666 3.4839-1.1892 3.7476-0.95686 7.3211-0.48865 10.779 1.4123 0.57148 0.31416 1.0391 0.59992 1.0391 0.63502 0 0.0351-0.71847 0.76645-1.5966 1.6252-1.485 1.4522-3.1576 2.815-4.4857 3.6547l-0.55754 0.35252z" opacity="0"/>
  <path d="m33.213 16.778-0.74016-0.26796 0.94291-0.71917c1.0394-0.7928 2.3999-2.1457 2.9043-2.8882l0.32506-0.4785-0.48432-0.35468c-1.038-0.76015-2.7582-1.4307-4.3364-1.6904-1.5588-0.25645-4.563-0.13129-6.5276 0.27194l-0.26437 0.05426 0.25861-0.14999c0.35651-0.20677 2.4948-0.93666 3.4839-1.1892 3.7476-0.95686 7.3211-0.48865 10.779 1.4123 0.57148 0.31416 1.0391 0.59992 1.0391 0.63502 0 0.0351-0.71847 0.76645-1.5966 1.6252-1.485 1.4522-3.1576 2.815-4.4857 3.6547l-0.55754 0.35252z" opacity="0"/>
  <path d="m33.213 16.778-0.74016-0.26796 0.94291-0.71917c1.0394-0.7928 2.3999-2.1457 2.9043-2.8882l0.32506-0.4785-0.48432-0.35468c-1.038-0.76015-2.7582-1.4307-4.3364-1.6904-1.5588-0.25645-4.563-0.13129-6.5276 0.27194l-0.26437 0.05426 0.25861-0.14999c0.35651-0.20677 2.4948-0.93666 3.4839-1.1892 3.7476-0.95686 7.3211-0.48865 10.779 1.4123 0.57148 0.31416 1.0391 0.59992 1.0391 0.63502 0 0.0351-0.71847 0.76645-1.5966 1.6252-1.485 1.4522-3.1576 2.815-4.4857 3.6547l-0.55754 0.35252z" opacity="0"/>
  <path d="m33.213 16.778-0.74016-0.26796 0.94291-0.71917c1.0394-0.7928 2.3999-2.1457 2.9043-2.8882l0.32506-0.4785-0.48432-0.35468c-1.038-0.76015-2.7582-1.4307-4.3364-1.6904-1.5588-0.25645-4.563-0.13129-6.5276 0.27194l-0.26437 0.05426 0.25861-0.14999c0.35651-0.20677 2.4948-0.93666 3.4839-1.1892 3.7476-0.95686 7.3211-0.48865 10.779 1.4123 0.57148 0.31416 1.0391 0.59992 1.0391 0.63502 0 0.0351-0.71847 0.76645-1.5966 1.6252-1.485 1.4522-3.1576 2.815-4.4857 3.6547l-0.55754 0.35252z" opacity="0"/>
 </g>
 <g transform="translate(-.028057 .034703)">
  <path d="m33.266 16.812c-0.25466-0.06655-0.46302-0.17109-0.46302-0.23231 0-0.06122 0.85383-0.92551 1.8974-1.9206 2.2172-2.1143 2.2284-2.4069 0.12838-3.3683-1.9695-0.90169-4.166-1.2599-6.656-1.0856l-2.1167 0.14817 1.4552-0.54335c1.8273-0.68229 6.2936-0.96111 8.1249-0.50722 1.4744 0.36543 4.8397 1.8577 4.8397 2.1461 0 0.50222-6.085 5.6042-6.5775 5.5149-0.09313-0.01688-0.37769-0.08514-0.63235-0.15169z" opacity="0" stroke-width=".1"/>
  <g stroke-width=".05">
   <path d="m17.92 28.837c5.9027-2.1392 9.692-4.2053 12.784-6.9706 0.48289-0.43183 1.0418-0.98214 1.2421-1.2229l0.36408-0.43778-0.43575-0.44958c-1.0363-1.0692-3.2565-1.8261-6.0403-2.0592-1.7075-0.14297-3.325-0.07975-5.8425 0.22834-0.89784 0.10988-1.66 0.17225-1.6936 0.13862-0.11071-0.11071 3.5606-1.2502 5.0458-1.5662 1.2082-0.257 1.8482-0.30969 3.7703-0.31041 2.4763-0.0011 3.5864 0.16016 5.5562 0.80624 1.1638 0.38172 4.1222 1.779 4.0705 1.9225-0.11927 0.33135-1.6614 2.0151-2.6153 2.8555-2.8312 2.4944-6.5051 4.469-11.179 6.0081-1.8795 0.61899-6.5148 1.8401-6.9442 1.8293-0.10978-3e-3 0.7529-0.3502 1.9171-0.77212z" opacity="0"/>
   <path d="m17.92 28.837c5.9027-2.1392 9.692-4.2053 12.784-6.9706 0.48289-0.43183 1.0418-0.98214 1.2421-1.2229l0.36408-0.43778-0.43575-0.44958c-1.0363-1.0692-3.2565-1.8261-6.0403-2.0592-1.7075-0.14297-3.325-0.07975-5.8425 0.22834-0.89784 0.10988-1.66 0.17225-1.6936 0.13862-0.11071-0.11071 3.5606-1.2502 5.0458-1.5662 1.2082-0.257 1.8482-0.30969 3.7703-0.31041 2.4763-0.0011 3.5864 0.16016 5.5562 0.80624 1.1638 0.38172 4.1222 1.779 4.0705 1.9225-0.11927 0.33135-1.6614 2.0151-2.6153 2.8555-2.8312 2.4944-6.5051 4.469-11.179 6.0081-1.8795 0.61899-6.5148 1.8401-6.9442 1.8293-0.10978-3e-3 0.7529-0.3502 1.9171-0.77212z" opacity="0"/>
   <path d="m17.92 28.837c5.9027-2.1392 9.692-4.2053 12.784-6.9706 0.48289-0.43183 1.0418-0.98214 1.2421-1.2229l0.36408-0.43778-0.43575-0.44958c-1.0363-1.0692-3.2565-1.8261-6.0403-2.0592-1.7075-0.14297-3.325-0.07975-5.8425 0.22834-0.89784 0.10988-1.66 0.17225-1.6936 0.13862-0.11071-0.11071 3.5606-1.2502 5.0458-1.5662 1.2082-0.257 1.8482-0.30969 3.7703-0.31041 2.4763-0.0011 3.5864 0.16016 5.5562 0.80624 1.1638 0.38172 4.1222 1.779 4.0705 1.9225-0.11927 0.33135-1.6614 2.0151-2.6153 2.8555-2.8312 2.4944-6.5051 4.469-11.179 6.0081-1.8795 0.61899-6.5148 1.8401-6.9442 1.8293-0.10978-3e-3 0.7529-0.3502 1.9171-0.77212z" opacity="0"/>
   <path d="m17.92 28.837c5.9027-2.1392 9.692-4.2053 12.784-6.9706 0.48289-0.43183 1.0418-0.98214 1.2421-1.2229l0.36408-0.43778-0.43575-0.44958c-1.0363-1.0692-3.2565-1.8261-6.0403-2.0592-1.7075-0.14297-3.325-0.07975-5.8425 0.22834-0.89784 0.10988-1.66 0.17225-1.6936 0.13862-0.11071-0.11071 3.5606-1.2502 5.0458-1.5662 1.2082-0.257 1.8482-0.30969 3.7703-0.31041 2.4763-0.0011 3.5864 0.16016 5.5562 0.80624 1.1638 0.38172 4.1222 1.779 4.0705 1.9225-0.11927 0.33135-1.6614 2.0151-2.6153 2.8555-2.8312 2.4944-6.5051 4.469-11.179 6.0081-1.8795 0.61899-6.5148 1.8401-6.9442 1.8293-0.10978-3e-3 0.7529-0.3502 1.9171-0.77212z" opacity="0"/>
   <path d="m17.92 28.837c5.9027-2.1392 9.692-4.2053 12.784-6.9706 0.48289-0.43183 1.0418-0.98214 1.2421-1.2229l0.36408-0.43778-0.43575-0.44958c-1.0363-1.0692-3.2565-1.8261-6.0403-2.0592-1.7075-0.14297-3.325-0.07975-5.8425 0.22834-0.89784 0.10988-1.66 0.17225-1.6936 0.13862-0.11071-0.11071 3.5606-1.2502 5.0458-1.5662 1.2082-0.257 1.8482-0.30969 3.7703-0.31041 2.4763-0.0011 3.5864 0.16016 5.5562 0.80624 1.1638 0.38172 4.1222 1.779 4.0705 1.9225-0.11927 0.33135-1.6614 2.0151-2.6153 2.8555-2.8312 2.4944-6.5051 4.469-11.179 6.0081-1.8795 0.61899-6.5148 1.8401-6.9442 1.8293-0.10978-3e-3 0.7529-0.3502 1.9171-0.77212z" opacity="0"/>
  </g>
  <path d="m15.769 18.817c6.4681-2.7092 13.056-4.9121 21.325 0-5.5078 7.6578-16.711 10.421-26.035 11.906 8.1889-2.1379 16.361-5.2854 21.008-10.478-0.89044-1.2222-4.599-3.8768-16.298-1.4288z" fill="#afbd21" fill-rule="evenodd"/>
  <path d="m22.542 11.515c4.0749-1.6902 10.465-5.3019 18.362-0.15875-7.9517 8.9506-14.727 8.4903-21.908 11.271 6.0419-3.1837 13.88-4.8405 17.41-10.16-3.623-2.8176-8.8969-2.3914-13.864-0.9525z" fill="#231f20" fill-rule="evenodd"/>
 </g>
</svg>
